<?xml version="1.0" encoding="UTF-8"?>
<svg width="45px" height="34px" viewBox="0 0 45 34" version="1.1" xmlns="http://www.w3.org/2000/svg" xmlns:xlink="http://www.w3.org/1999/xlink">
    <!-- Generator: Sketch 64 (93537) - https://sketch.com -->
    <title>“</title>
    <desc>Created with Sketch.</desc>
    <g id="V2" stroke="none" stroke-width="1" fill="none" fill-rule="evenodd">
        <g id="Home-Desktop-Copy-5" transform="translate(-325.000000, -5001.000000)" fill="#8E9297" fill-rule="nonzero">
            <path d="M336.188624,5034.06122 C341.730653,5034.06122 346.122449,5029.61862 346.122449,5024.14286 C346.122449,5018.77041 342.253486,5014.43112 336.188624,5014.43112 C335.142958,5014.43112 333.888159,5014.9477 333.574459,5015.15434 C333.888159,5013.19133 334.724692,5011.22832 336.711457,5009.78189 C338.489089,5008.23214 341.416953,5007.19898 345.599616,5007.19898 L345.599616,5001 C332.63336,5001.10332 325,5006.47577 325,5021.45663 C325,5028.99872 329.496363,5034.06122 336.188624,5034.06122 Z M360.066175,5034.06122 C365.608204,5034.06122 370,5029.61862 370,5024.14286 C370,5018.77041 366.131037,5014.43112 360.066175,5014.43112 C358.915943,5014.43112 357.661144,5014.9477 357.452011,5015.15434 C357.661144,5013.19133 358.602243,5011.22832 360.484441,5009.78189 C362.36664,5008.23214 365.294504,5007.19898 369.477167,5007.19898 L369.477167,5001 C356.406345,5001.10332 348.877551,5006.47577 348.877551,5021.45663 C348.877551,5028.99872 353.373914,5034.06122 360.066175,5034.06122 Z" id="“"></path>
        </g>
    </g>
</svg>