<?xml version="1.0" encoding="UTF-8"?>
<svg width="45px" height="34px" viewBox="0 0 45 34" version="1.1" xmlns="http://www.w3.org/2000/svg" xmlns:xlink="http://www.w3.org/1999/xlink">
    <!-- Generator: Sketch 64 (93537) - https://sketch.com -->
    <title>“</title>
    <desc>Created with Sketch.</desc>
    <g id="V2" stroke="none" stroke-width="1" fill="none" fill-rule="evenodd">
        <g id="Home-Desktop-Copy-5" transform="translate(-1232.000000, -5001.000000)" fill="#8E9297" fill-rule="nonzero">
            <path d="M1243.18862,5034.06122 C1248.73065,5034.06122 1253.12245,5029.61862 1253.12245,5024.14286 C1253.12245,5018.77041 1249.25349,5014.43112 1243.18862,5014.43112 C1242.14296,5014.43112 1240.88816,5014.9477 1240.57446,5015.15434 C1240.88816,5013.19133 1241.72469,5011.22832 1243.71146,5009.78189 C1245.48909,5008.23214 1248.41695,5007.19898 1252.59962,5007.19898 L1252.59962,5001 C1239.63336,5001.10332 1232,5006.47577 1232,5021.45663 C1232,5028.99872 1236.49636,5034.06122 1243.18862,5034.06122 Z M1267.06617,5034.06122 C1272.6082,5034.06122 1277,5029.61862 1277,5024.14286 C1277,5018.77041 1273.13104,5014.43112 1267.06617,5014.43112 C1265.91594,5014.43112 1264.66114,5014.9477 1264.45201,5015.15434 C1264.66114,5013.19133 1265.60224,5011.22832 1267.48444,5009.78189 C1269.36664,5008.23214 1272.2945,5007.19898 1276.47717,5007.19898 L1276.47717,5001 C1263.40634,5001.10332 1255.87755,5006.47577 1255.87755,5021.45663 C1255.87755,5028.99872 1260.37391,5034.06122 1267.06617,5034.06122 Z" id="“" transform="translate(1254.500000, 5017.530612) rotate(180.000000) translate(-1254.500000, -5017.530612) "></path>
        </g>
    </g>
</svg>