<?xml version="1.0" encoding="utf-8"?>
<!-- Generator: Adobe Illustrator 26.3.1, SVG Export Plug-In . SVG Version: 6.00 Build 0)  -->
<svg version="1.1" id="Layer_1" xmlns="http://www.w3.org/2000/svg" xmlns:xlink="http://www.w3.org/1999/xlink" x="0px" y="0px"
	 viewBox="0 0 148 143" style="enable-background:new 0 0 148 143;" xml:space="preserve">
<style type="text/css">
	.st0{fill:#5F9FFF;}
	.st1{fill:#202228;}
</style>
<g>
	<g>
		<circle class="st0" cx="67.7" cy="71.5" r="65.1"/>
	</g>
	<g>
		<path class="st0" d="M117.9,21.3c2.7-2.6,7-2.7,9.4,0.2c5.1,6.1,9.2,12.9,12.3,20.2c3.9,9.4,5.9,19.5,5.9,29.7s-2,20.3-5.9,29.7
			c-3,7.3-7.2,14.1-12.3,20.2c-2.4,2.9-6.7,2.9-9.4,0.2L72.5,76.3c-2.7-2.7-2.7-6.9,0-9.6L117.9,21.3z"/>
	</g>
	<g>
		<path class="st1" d="M108.9,29.8c2.7-2.7,7-2.7,9.3,0.2c3.9,4.9,7.2,10.3,9.6,16.1c3.3,7.9,5,16.4,5,24.9c0,8.6-1.7,17-5,24.9
			c-2.4,5.8-5.6,11.2-9.6,16.1c-2.4,2.9-6.7,2.9-9.3,0.2L72.5,75.8c-2.7-2.7-2.7-6.9,0-9.6L108.9,29.8z"/>
	</g>
</g>
</svg>
