<svg width="78" height="78" viewBox="0 0 78 78" fill="none" xmlns="http://www.w3.org/2000/svg">
<g filter="url(#filter0_d_984_82954)">
<rect x="7" y="3" width="64" height="64" rx="32" fill="#5F9FFF"/>
</g>
<path fill-rule="evenodd" clip-rule="evenodd" d="M64.4336 43.9085C64.7432 43.0597 63.7977 42.3333 62.9841 42.7259C59.9644 44.1832 56.5776 45.0001 53 45.0001C40.2975 45.0001 30 34.7026 30 22.0001C30 18.4223 30.8169 15.0354 32.2743 12.0156C32.667 11.202 31.9405 10.2565 31.0917 10.566C21.1198 14.2026 14 23.7698 14 34.9998C14 49.3592 25.6406 60.9998 40 60.9998C51.2299 60.9998 60.797 53.8802 64.4336 43.9085Z" fill="#202228"/>
<defs>
<filter id="filter0_d_984_82954" x="0" y="0" width="78" height="78" filterUnits="userSpaceOnUse" color-interpolation-filters="sRGB">
<feFlood flood-opacity="0" result="BackgroundImageFix"/>
<feColorMatrix in="SourceAlpha" type="matrix" values="0 0 0 0 0 0 0 0 0 0 0 0 0 0 0 0 0 0 127 0" result="hardAlpha"/>
<feOffset dy="4"/>
<feGaussianBlur stdDeviation="3.5"/>
<feComposite in2="hardAlpha" operator="out"/>
<feColorMatrix type="matrix" values="0 0 0 0 0.162917 0 0 0 0 0.204125 0 0 0 0 0.575 0 0 0 0.05 0"/>
<feBlend mode="normal" in2="BackgroundImageFix" result="effect1_dropShadow_984_82954"/>
<feBlend mode="normal" in="SourceGraphic" in2="effect1_dropShadow_984_82954" result="shape"/>
</filter>
</defs>
</svg>
