<svg width="126" height="62" viewBox="0 0 126 62" fill="none" xmlns="http://www.w3.org/2000/svg">
<g clip-path="url(#clip0_356_34273)">
<path d="M16.3182 43.7502H21.7273V30.6138L14 24.8184V41.432C14 42.7147 15.0393 43.7502 16.3182 43.7502Z" fill="#4285F4"/>
<path d="M40.2725 43.7502H45.6816C46.9643 43.7502 47.9997 42.7109 47.9997 41.432V24.8184L40.2725 30.6138" fill="#34A853"/>
<path d="M40.2725 20.5689V30.6144L47.9997 24.8189V21.728C47.9997 18.8612 44.7272 17.2269 42.4361 18.9462" fill="#FBBC04"/>
<path d="M21.7275 30.6138V20.5684L31.0003 27.5229L40.273 20.5684V30.6138L31.0003 37.5684" fill="#EA4335"/>
<path d="M14 21.728V24.8189L21.7273 30.6144V20.5689L19.5636 18.9462C17.2686 17.2269 14 18.8612 14 21.728Z" fill="#C5221F"/>
</g>
<path d="M110.866 31.7362C110.867 31.4885 110.739 31.258 110.528 31.1285H110.524L110.511 31.1211L99.5147 24.6237C99.4672 24.5917 99.4179 24.5624 99.3671 24.5361C98.9425 24.3174 98.4382 24.3174 98.0136 24.5361C97.9628 24.5624 97.9135 24.5917 97.866 24.6237L86.8701 31.1211L86.8568 31.1285C86.5208 31.3371 86.4177 31.7782 86.6267 32.1136C86.6883 32.2125 86.7731 32.2948 86.8738 32.3535L97.8698 38.8509C97.9174 38.8827 97.9667 38.912 98.0174 38.9386C98.4419 39.1573 98.9462 39.1573 99.3708 38.9386C99.4215 38.912 99.4708 38.8827 99.5184 38.8509L110.514 32.3535C110.734 32.2257 110.868 31.9901 110.866 31.7362Z" fill="#0A2767"/>
<path d="M88.1525 27.3984H95.3685V34.0011H88.1525V27.3984ZM109.39 20.6866V17.6663C109.408 16.9111 108.809 16.2847 108.052 16.2666H89.3266C88.5701 16.2847 87.9713 16.9111 87.9886 17.6663V20.6866L99.0584 23.6333L109.39 20.6866Z" fill="#0364B8"/>
<path d="M87.9893 20.6865H95.3691V27.3165H87.9893V20.6865Z" fill="#0078D4"/>
<path d="M102.749 20.6865H95.3691V27.3165L102.749 33.9465H109.391V27.3165L102.749 20.6865Z" fill="#28A8EA"/>
<path d="M95.3691 27.3164H102.749V33.9464H95.3691V27.3164Z" fill="#0078D4"/>
<path d="M95.3691 33.9463H102.749V40.5763H95.3691V33.9463Z" fill="#0364B8"/>
<path d="M88.1533 34.002H95.3693V40.0043H88.1533V34.002Z" fill="#14447D"/>
<path d="M102.749 33.9463H109.391V40.5763H102.749V33.9463Z" fill="#0078D4"/>
<path d="M110.529 32.3141L110.515 32.3215L99.5192 38.4947C99.4712 38.5242 99.4225 38.5522 99.3716 38.5772C99.1848 38.666 98.982 38.7161 98.7753 38.7246L98.1746 38.3739C98.1238 38.3485 98.0745 38.3202 98.0269 38.2892L86.8834 31.9406H86.8782L86.5137 31.7373V44.2341C86.5194 45.0679 87.2009 45.7393 88.0361 45.734H109.368C109.381 45.734 109.392 45.7281 109.405 45.7281C109.582 45.7168 109.756 45.6806 109.922 45.6205C109.994 45.5901 110.063 45.5542 110.129 45.513C110.179 45.485 110.263 45.4238 110.263 45.4238C110.641 45.1446 110.865 44.7036 110.867 44.2341V31.7373C110.867 31.9763 110.738 32.1967 110.529 32.3141Z" fill="url(#paint0_linear_356_34273)"/>
<path opacity="0.5" d="M110.276 31.6877V32.4538L98.7787 40.356L86.875 31.9455C86.875 31.9415 86.8717 31.9382 86.8676 31.9382L85.7754 31.2825V30.73L86.2256 30.7227L87.1776 31.2678L87.1997 31.2752L87.2809 31.3267C87.2809 31.3267 98.4687 37.6989 98.4982 37.7136L98.9262 37.9641C98.9631 37.9493 99 37.9346 99.0443 37.9199C99.0665 37.9051 110.151 31.6803 110.151 31.6803L110.276 31.6877Z" fill="#0A2767"/>
<path d="M110.529 32.3141L110.515 32.3222L99.5191 38.4955C99.4712 38.5249 99.4225 38.5529 99.3715 38.578C98.9445 38.7862 98.4451 38.7862 98.0181 38.578C97.9675 38.553 97.9183 38.5254 97.8705 38.4955L86.8745 32.3222L86.8613 32.3141C86.649 32.1992 86.5159 31.9784 86.5137 31.7373V44.2341C86.519 45.0677 87.2002 45.7392 88.0353 45.734C88.0353 45.734 88.0354 45.734 88.0354 45.734H109.345C110.181 45.7393 110.862 45.0678 110.867 44.2342C110.867 44.2342 110.867 44.2341 110.867 44.2341V31.7373C110.867 31.9763 110.738 32.1967 110.529 32.3141Z" fill="#1490DF"/>
<path opacity="0.1" d="M99.6784 38.4033L99.5138 38.4954C99.4661 38.5257 99.4168 38.5535 99.3662 38.5786C99.1849 38.6675 98.9877 38.7196 98.7861 38.7319L102.97 43.6705L110.268 45.426C110.468 45.2752 110.627 45.0769 110.73 44.8491L99.6784 38.4033Z" fill="black"/>
<path opacity="0.05" d="M100.424 37.9854L99.5138 38.4959C99.4661 38.5262 99.4168 38.554 99.3662 38.5791C99.1849 38.6679 98.9877 38.72 98.7861 38.7323L100.746 44.1269L110.27 45.4242C110.645 45.143 110.866 44.7021 110.866 44.2337V44.0724L100.424 37.9854Z" fill="black"/>
<path d="M88.0561 45.734H109.343C109.671 45.7356 109.99 45.6323 110.255 45.4393L98.1738 38.3754C98.123 38.35 98.0738 38.3217 98.0262 38.2907L86.8827 31.9421H86.8775L86.5137 31.7373V44.1914C86.5128 45.0425 87.2034 45.7331 88.0561 45.734C88.056 45.734 88.056 45.734 88.0561 45.734Z" fill="#28A8EA"/>
<path opacity="0.1" d="M96.8455 23.5105V39.2236C96.8441 39.7745 96.5085 40.2697 95.9968 40.4759C95.8382 40.5439 95.6675 40.579 95.4949 40.579H86.5137V22.8968H87.9896V22.1602H95.4949C96.2405 22.163 96.8438 22.7662 96.8455 23.5105Z" fill="black"/>
<path opacity="0.2" d="M96.1075 24.2469V39.9599C96.1093 40.1379 96.0715 40.314 95.9968 40.4756C95.7918 40.9798 95.3021 41.3107 94.757 41.3132H86.5137V22.8965H94.757C94.9711 22.8944 95.1821 22.9477 95.3695 23.0513C95.8219 23.2788 96.1073 23.7412 96.1075 24.2469Z" fill="black"/>
<path opacity="0.2" d="M96.1075 24.2469V38.4866C96.1039 39.2305 95.5022 39.8334 94.757 39.8399H86.5137V22.8965H94.757C94.9711 22.8944 95.1821 22.9477 95.3695 23.0513C95.8219 23.2788 96.1073 23.7412 96.1075 24.2469Z" fill="black"/>
<path opacity="0.2" d="M95.3695 24.2468V38.4865C95.3687 39.2316 94.7653 39.8362 94.019 39.8398H86.5137V22.8965H94.019C94.7652 22.8969 95.3699 23.5011 95.3695 24.2461C95.3695 24.2463 95.3695 24.2465 95.3695 24.2468Z" fill="black"/>
<path d="M80.4865 22.8965H94.0167C94.7638 22.8965 95.3694 23.501 95.3694 24.2468V37.7528C95.3694 38.4986 94.7638 39.1031 94.0167 39.1031H80.4865C79.7394 39.1031 79.1338 38.4986 79.1338 37.7528V24.2468C79.1338 23.501 79.7394 22.8965 80.4865 22.8965Z" fill="url(#paint1_linear_356_34273)"/>
<path d="M83.3605 28.5605C83.6939 27.8514 84.2321 27.258 84.9059 26.8565C85.6521 26.4301 86.5017 26.2175 87.3612 26.2422C88.1578 26.2249 88.9438 26.4265 89.6334 26.8249C90.2818 27.2108 90.804 27.7764 91.1367 28.4529C91.499 29.1983 91.6795 30.0187 91.6636 30.8471C91.6812 31.7128 91.4954 32.5706 91.1212 33.3517C90.7806 34.0524 90.2418 34.6381 89.5714 35.0365C88.8552 35.447 88.04 35.6539 87.2143 35.6346C86.4007 35.6542 85.5973 35.4504 84.8919 35.0453C84.2379 34.6588 83.7091 34.0926 83.3687 33.4143C83.0042 32.6797 82.8216 31.8685 82.8359 31.0489C82.8207 30.1905 83 29.3399 83.3605 28.5605ZM85.0077 32.5605C85.1855 33.0088 85.4869 33.3976 85.8771 33.6817C86.2745 33.959 86.7503 34.102 87.235 34.0899C87.7511 34.1102 88.2599 33.9623 88.6844 33.6685C89.0696 33.3852 89.3631 32.9954 89.5286 32.5473C89.7136 32.0468 89.805 31.5167 89.798 30.9833C89.8037 30.4449 89.7179 29.9093 89.5441 29.3995C89.3906 28.9392 89.1066 28.5333 88.7264 28.2312C88.3126 27.9234 87.8052 27.7673 87.2896 27.7892C86.7944 27.7764 86.3079 27.9205 85.8999 28.201C85.5032 28.4863 85.196 28.8785 85.0144 29.3317C84.6113 30.3705 84.6092 31.5217 85.0085 32.562L85.0077 32.5605Z" fill="white"/>
<path d="M102.749 20.6865H109.391V27.3165H102.749V20.6865Z" fill="#50D9FF"/>
<defs>
<linearGradient id="paint0_linear_356_34273" x1="98.6904" y1="31.7373" x2="98.6904" y2="45.734" gradientUnits="userSpaceOnUse">
<stop stop-color="#35B8F1"/>
<stop offset="1" stop-color="#28A8EA"/>
</linearGradient>
<linearGradient id="paint1_linear_356_34273" x1="81.9542" y1="21.8414" x2="92.5206" y2="40.1746" gradientUnits="userSpaceOnUse">
<stop stop-color="#1784D9"/>
<stop offset="0.5" stop-color="#107AD5"/>
<stop offset="1" stop-color="#0A63C9"/>
</linearGradient>
<clipPath id="clip0_356_34273">
<rect width="34" height="34" fill="white" transform="translate(14 14)"/>
</clipPath>
</defs>
</svg>
