<svg width="446" height="62" viewBox="0 0 446 62" fill="none" xmlns="http://www.w3.org/2000/svg">
<ellipse cx="31.0002" cy="23.0666" rx="6.8" ry="6.8" fill="#F06A6A"/>
<circle cx="21.9328" cy="38.9338" r="6.8" fill="#F06A6A"/>
<ellipse cx="40.0666" cy="38.9338" rx="6.8" ry="6.8" fill="#F06A6A"/>
<path fill-rule="evenodd" clip-rule="evenodd" d="M99.3131 15.2059L81.6228 16.5028C80.1958 16.6255 79.6992 17.551 79.6992 18.6606V37.9098C79.6992 38.774 80.0083 39.5134 80.7542 40.5013L84.9125 45.8684C85.5956 46.7326 86.2169 46.9177 87.5213 46.8564L108.064 45.622C109.802 45.4993 110.299 44.6964 110.299 43.3393V21.6837C110.299 20.9824 110.02 20.7804 109.198 20.1817C109.151 20.1479 109.104 20.114 109.057 20.0801L103.411 16.1315C102.044 15.1456 101.486 15.0208 99.3131 15.2059V15.2059ZM87.986 21.3293C86.3086 21.4415 85.9281 21.4668 84.9754 20.6978L82.5531 18.7854C82.3069 18.5379 82.4306 18.229 83.0508 18.1677L100.057 16.9343C101.485 16.8106 102.229 17.3045 102.787 17.7361L105.704 19.8337C105.829 19.8961 106.139 20.2652 105.766 20.2652L88.2034 21.3145L87.986 21.3293V21.3293ZM86.0304 43.1542V24.7702C86.0304 23.9674 86.2787 23.5972 87.0226 23.5348L107.194 22.3628C107.878 22.3014 108.187 22.733 108.187 23.5348V41.796C108.187 42.5989 108.062 43.278 106.946 43.3393L87.6428 44.45C86.526 44.5113 86.0304 44.1422 86.0304 43.1542V43.1542ZM105.085 25.7561C105.208 26.3114 105.085 26.8667 104.525 26.9302L103.595 27.1132V40.6864C102.787 41.118 102.043 41.3645 101.422 41.3645C100.429 41.3645 100.181 41.0556 99.4367 40.1311L93.3527 30.6303V39.8223L95.2774 40.2549C95.2774 40.2549 95.2774 41.3655 93.7247 41.3655L89.4438 41.612C89.3191 41.3645 89.4438 40.7478 89.8775 40.6251L90.9955 40.3173V28.1636L89.4438 28.0387C89.3191 27.4834 89.6292 26.6816 90.4988 26.6192L95.0919 26.3125L101.422 35.936V27.4221L99.8086 27.238C99.684 26.5579 100.181 26.0639 100.801 26.0036L105.085 25.7561V25.7561Z" fill="black"/>
<path fill-rule="evenodd" clip-rule="evenodd" d="M147.525 15.7002C146.512 15.7025 145.541 16.106 144.825 16.8227C144.108 17.5394 143.704 18.511 143.7 19.5252V42.4752C143.7 44.5789 145.421 46.3002 147.525 46.3002H170.475C172.579 46.3002 174.3 44.5789 174.3 42.4752V19.5252C174.3 17.4214 172.579 15.7002 170.475 15.7002H147.525Z" fill="#E44332"/>
<path fill-rule="evenodd" clip-rule="evenodd" d="M150.436 30.1653L163.193 22.7486C163.466 22.59 163.48 22.1011 163.174 21.9255C162.868 21.749 162.288 21.4158 162.072 21.2879C161.921 21.2047 161.751 21.162 161.579 21.1641C161.407 21.1662 161.238 21.213 161.089 21.2998C160.936 21.389 150.743 27.3093 150.403 27.5037C149.994 27.7377 149.491 27.7417 149.084 27.5037L143.7 24.3442V27.0297C145.01 27.8012 148.269 29.7171 149.058 30.1683C149.529 30.436 149.98 30.4301 150.436 30.1653Z" fill="white"/>
<path fill-rule="evenodd" clip-rule="evenodd" d="M150.436 35.2434L163.193 27.8268C163.466 27.6681 163.48 27.1792 163.174 27.0037C162.868 26.8271 162.288 26.4939 162.072 26.366C161.921 26.2828 161.751 26.2402 161.579 26.2423C161.407 26.2443 161.238 26.2911 161.089 26.3779C160.936 26.4672 150.743 32.3874 150.403 32.5818C149.994 32.8158 149.491 32.8198 149.084 32.5818L143.7 29.4223V32.1078C145.01 32.8793 148.269 34.7952 149.058 35.2464C149.529 35.5142 149.98 35.5082 150.436 35.2434Z" fill="white"/>
<path fill-rule="evenodd" clip-rule="evenodd" d="M150.436 40.637L163.193 33.2203C163.466 33.0616 163.48 32.5727 163.174 32.3972C162.868 32.2207 162.288 31.8875 162.072 31.7596C161.921 31.6764 161.751 31.6337 161.579 31.6358C161.407 31.6379 161.238 31.6846 161.089 31.7715C160.936 31.8607 150.743 37.781 150.403 37.9754C149.994 38.2094 149.491 38.2134 149.084 37.9754L143.7 34.8159V37.5013C145.01 38.2729 148.269 40.1888 149.058 40.64C149.529 40.9077 149.98 40.9018 150.436 40.637Z" fill="white"/>
<path fill-rule="evenodd" clip-rule="evenodd" d="M234.667 15.6992H211.337C209.33 15.6992 207.702 17.3258 207.699 19.3341V42.6447C207.695 43.6126 208.077 44.5422 208.759 45.2279C209.442 45.9137 210.369 46.2992 211.337 46.2992H234.667C235.633 46.2979 236.559 45.9118 237.241 45.2262C237.922 44.5406 238.303 43.6117 238.299 42.6447V19.3341C238.296 17.3277 236.672 15.7019 234.667 15.6992ZM220.733 37.7219C220.731 38.0454 220.601 38.3551 220.371 38.5825C220.141 38.8099 219.83 38.9362 219.507 38.9336L214.572 38.9304C213.905 38.9277 213.366 38.386 213.366 37.7187V22.5775C213.366 21.9103 213.905 21.3686 214.572 21.3659H219.522C220.189 21.3686 220.73 21.9095 220.733 22.5775V37.7219ZM232.633 30.9208C232.633 31.2447 232.503 31.5552 232.273 31.7828C232.042 32.0105 231.731 32.1364 231.407 32.1326H226.338C225.67 32.1298 225.271 31.5889 225.268 30.9208V22.557C225.271 21.8889 225.811 21.348 226.479 21.3454H231.436C232.103 21.3481 232.642 21.8897 232.642 22.557L232.633 30.9208Z" fill="url(#paint0_linear_433_55692)"/>
<path fill-rule="evenodd" clip-rule="evenodd" d="M287 15.1338C278.234 15.1338 271.134 22.2341 271.134 31.0005C271.134 38.0215 275.676 43.9516 281.983 46.054C282.776 46.1928 283.073 45.7168 283.073 45.3003C283.073 44.9235 283.054 43.674 283.054 42.3451C279.067 43.079 278.036 41.3733 277.718 40.4808C277.54 40.0246 276.766 38.6165 276.092 38.2396C275.537 37.9421 274.743 37.2083 276.072 37.1885C277.322 37.1686 278.214 38.3388 278.512 38.8148C279.94 41.2146 282.221 40.5403 283.133 40.1238C283.272 39.0925 283.688 38.3983 284.144 38.0016C280.614 37.605 276.925 36.2365 276.925 30.1675C276.925 28.442 277.54 27.014 278.551 25.9033C278.393 25.5066 277.837 23.8803 278.71 21.6986C278.71 21.6986 280.039 21.2821 283.073 23.325C284.343 22.968 285.691 22.7895 287.04 22.7895C288.389 22.7895 289.737 22.968 291.007 23.325C294.041 21.2623 295.37 21.6986 295.37 21.6986C296.243 23.8803 295.687 25.5066 295.529 25.9033C296.54 27.014 297.155 28.4221 297.155 30.1675C297.155 36.2563 293.446 37.605 289.916 38.0016C290.491 38.4975 290.987 39.4495 290.987 40.937C290.987 43.0591 290.967 44.7648 290.967 45.3003C290.967 45.7168 291.265 46.2126 292.058 46.054C295.208 44.9906 297.945 42.9663 299.884 40.2658C301.823 37.5654 302.866 34.3249 302.867 31.0005C302.867 22.2341 295.767 15.1338 287 15.1338Z" fill="black"/>
<path d="M367.04 30.0476L352.416 15.4169L350.999 14L334.96 30.0476C334.435 30.5736 334.435 31.4252 334.96 31.9501L345.016 42.0117L350.999 47.9988L367.04 31.9501C367.564 31.4252 367.564 30.5736 367.04 30.0476V30.0476ZM350.999 36.0247L345.976 30.9996L350.999 25.9727L356.023 30.9996L350.999 36.0247Z" fill="#2684FF"/>
<path d="M351.007 25.9744C347.717 22.6829 347.7 17.3519 350.972 14.041L339.973 25.0364L345.96 31.0234L351.007 25.9744Z" fill="url(#paint1_linear_433_55692)"/>
<path d="M356.048 30.9873L351.008 36.0267C352.596 37.6137 353.49 39.7678 353.49 42.0137C353.49 44.2597 352.596 46.4124 351.008 48.0008L362.034 36.9744L356.048 30.9873V30.9873Z" fill="url(#paint2_linear_433_55692)"/>
<path d="M401.967 39.3529L406.881 35.5332C409.493 38.9906 412.267 40.5842 415.355 40.5842C418.426 40.5842 421.122 39.0094 423.615 35.5793L428.6 39.3068C425.002 44.2531 420.531 46.8665 415.355 46.8665C410.194 46.8665 405.68 44.2698 401.967 39.3529V39.3529Z" fill="url(#paint3_linear_433_55692)"/>
<path d="M415.315 22.8287L406.574 30.4331L402.533 25.7022L415.334 14.5664L428.033 25.7106L423.974 30.4247L415.315 22.8287Z" fill="url(#paint4_linear_433_55692)"/>
<defs>
<linearGradient id="paint0_linear_433_55692" x1="207.431" y1="32.1326" x2="207.431" y2="1.53255" gradientUnits="userSpaceOnUse">
<stop stop-color="#0052CC"/>
<stop offset="1" stop-color="#2684FF"/>
</linearGradient>
<linearGradient id="paint1_linear_433_55692" x1="348.847" y1="22.1536" x2="343.091" y2="27.9078" gradientUnits="userSpaceOnUse">
<stop stop-color="#0052CC"/>
<stop offset="1" stop-color="#2684FF"/>
</linearGradient>
<linearGradient id="paint2_linear_433_55692" x1="353.23" y1="39.793" x2="358.974" y2="34.0489" gradientUnits="userSpaceOnUse">
<stop stop-color="#0052CC"/>
<stop offset="1" stop-color="#2684FF"/>
</linearGradient>
<linearGradient id="paint3_linear_433_55692" x1="401.967" y1="43.241" x2="428.6" y2="43.241" gradientUnits="userSpaceOnUse">
<stop stop-color="#8930FD"/>
<stop offset="1" stop-color="#49CCF9"/>
</linearGradient>
<linearGradient id="paint4_linear_433_55692" x1="402.533" y1="25.3573" x2="428.033" y2="25.3573" gradientUnits="userSpaceOnUse">
<stop stop-color="#FF02F0"/>
<stop offset="1" stop-color="#FFC800"/>
</linearGradient>
</defs>
</svg>
