<svg width="68" height="68" viewBox="0 0 68 68" fill="none" xmlns="http://www.w3.org/2000/svg">
<rect x="4" y="4" width="60" height="60" rx="10" fill="#5F9FFF"/>
<rect x="28" y="28" width="12" height="12" stroke="#202228" stroke-width="4"/>
<path d="M17 22.5C17 19.4624 19.4624 17 22.5 17V17C25.5376 17 28 19.4624 28 22.5V28H22.5C19.4624 28 17 25.5376 17 22.5V22.5Z" stroke="#202228" stroke-width="4"/>
<path d="M17 45.5C17 48.5376 19.4624 51 22.5 51V51C25.5376 51 28 48.5376 28 45.5V40H22.5C19.4624 40 17 42.4624 17 45.5V45.5Z" stroke="#202228" stroke-width="4"/>
<path d="M51 22.5C51 19.4624 48.5376 17 45.5 17V17C42.4624 17 40 19.4624 40 22.5V28H45.5C48.5376 28 51 25.5376 51 22.5V22.5Z" stroke="#202228" stroke-width="4"/>
<path d="M51 45.5C51 48.5376 48.5376 51 45.5 51V51C42.4624 51 40 48.5376 40 45.5V40H45.5C48.5376 40 51 42.4624 51 45.5V45.5Z" stroke="#202228" stroke-width="4"/>
</svg>
