<svg width="62" height="62" viewBox="0 0 62 62" fill="none" xmlns="http://www.w3.org/2000/svg">
<path d="M26.9199 15.7002C25.2299 15.7002 23.8601 17.0731 23.8601 18.7661C23.8597 19.1683 23.9385 19.5667 24.0921 19.9385C24.2456 20.3102 24.4709 20.6481 24.755 20.9328C25.0392 21.2175 25.3766 21.4434 25.748 21.5977C26.1195 21.752 26.5177 21.8316 26.9199 21.8321H29.9802V18.7661C29.9809 17.9538 29.6589 17.1744 29.085 16.5994C28.511 16.0245 27.7323 15.701 26.9199 15.7002ZM26.9199 23.876H18.76C17.07 23.876 15.7002 25.2489 15.7002 26.9424C15.7002 28.6355 17.07 30.0084 18.76 30.0084H26.9204C28.6099 30.0084 29.9802 28.6355 29.9802 26.9424C29.9802 25.2489 28.6099 23.876 26.9199 23.876Z" fill="#40C5EE"/>
<path d="M46.3005 26.9424C46.3005 25.2489 44.9302 23.876 43.2402 23.876C41.5502 23.876 40.1804 25.2489 40.1804 26.9424V30.0084H43.2402C44.0526 30.0076 44.8314 29.6841 45.4053 29.1091C45.9792 28.5342 46.3012 27.7548 46.3005 26.9424ZM38.1406 26.9424V18.7661C38.1413 17.9538 37.8192 17.1744 37.2453 16.5994C36.6714 16.0245 35.8927 15.701 35.0803 15.7002C33.3903 15.7002 32.0205 17.0731 32.0205 18.7661V26.9419C32.0205 28.636 33.3903 30.0089 35.0803 30.0089C35.8927 30.0081 36.6714 29.6846 37.2453 29.1097C37.8192 28.5347 38.1413 27.7553 38.1406 26.943" fill="#37B57F"/>
<path d="M35.0803 46.3599C35.8927 46.3591 36.6714 46.0357 37.2453 45.4607C37.8192 44.8857 38.1413 44.1064 38.1406 43.294C38.1413 42.4816 37.8192 41.7023 37.2453 41.1273C36.6714 40.5524 35.8927 40.2289 35.0803 40.2281H32.0205V43.294C32.0205 44.9871 33.3903 46.3599 35.0803 46.3599ZM35.0803 38.1841H43.2407C44.9302 38.1841 46.3005 36.8112 46.3005 35.1177C46.3012 34.3053 45.9792 33.5259 45.4053 32.951C44.8314 32.376 44.0526 32.0526 43.2402 32.0518H35.0803C33.3903 32.0518 32.0205 33.4246 32.0205 35.1177C32.0201 35.5199 32.0989 35.9183 32.2525 36.29C32.406 36.6618 32.6313 36.9997 32.9154 37.2844C33.1996 37.5691 33.537 37.795 33.9084 37.9493C34.2799 38.1036 34.6781 38.1832 35.0803 38.1836" fill="#EBB13E"/>
<path d="M15.7002 35.1177C15.6998 35.5199 15.7786 35.9183 15.9322 36.29C16.0857 36.6618 16.311 36.9997 16.5951 37.2844C16.8792 37.5691 17.2167 37.795 17.5881 37.9493C17.9596 38.1036 18.3578 38.1832 18.76 38.1836C19.5723 38.1828 20.3511 37.8593 20.925 37.2844C21.4989 36.7094 21.821 35.9301 21.8203 35.1177V32.0518H18.76C17.07 32.0518 15.7002 33.4246 15.7002 35.1177ZM23.8601 35.1177V43.2935C23.8601 44.9871 25.2299 46.3599 26.9199 46.3599C27.7323 46.3591 28.5111 46.0357 29.085 45.4607C29.6589 44.8857 29.9809 44.1064 29.9802 43.294V35.1177C29.9806 34.7154 29.9018 34.317 29.7482 33.9452C29.5946 33.5734 29.3693 33.2355 29.0851 32.9508C28.8009 32.6661 28.4634 32.4402 28.0919 32.2859C27.7204 32.1317 27.3222 32.0521 26.9199 32.0518C25.2299 32.0518 23.8601 33.4246 23.8601 35.1177Z" fill="#DE245C"/>
</svg>
