<svg width="158" height="22" viewBox="0 0 158 22" fill="none" xmlns="http://www.w3.org/2000/svg">
<path d="M12.3315 6.32037C11.8904 5.76902 11.339 5.31415 10.6774 4.95577C10.0434 4.56982 9.25769 4.37685 8.32038 4.37685C7.43822 4.37685 6.66632 4.56982 6.0047 4.95577C5.37064 5.31415 5.05361 5.85172 5.05361 6.56848C5.05361 7.1474 5.2328 7.61605 5.59118 7.97443C5.97713 8.33281 6.41821 8.62227 6.91443 8.84282C7.43822 9.06336 7.98957 9.22876 8.56849 9.33903C9.14742 9.4493 9.64363 9.54579 10.0571 9.62849C10.8566 9.82147 11.6009 10.0558 12.2901 10.3315C13.0069 10.6071 13.6134 10.9655 14.1096 11.4066C14.6334 11.8477 15.0331 12.3853 15.3088 13.0193C15.612 13.6534 15.7637 14.4253 15.7637 15.335C15.7637 16.4377 15.5293 17.3888 15.0607 18.1883C14.592 18.9602 13.9855 19.5942 13.2412 20.0904C12.4969 20.5867 11.6423 20.945 10.6774 21.1656C9.74012 21.3861 8.78904 21.4964 7.82417 21.4964C6.19767 21.4964 4.76415 21.2483 3.52361 20.7521C2.31063 20.2558 1.22171 19.3461 0.256836 18.0229L3.06874 15.7072C3.67523 16.3137 4.35064 16.8512 5.09497 17.3199C5.83929 17.7885 6.74903 18.0229 7.82417 18.0229C8.29282 18.0229 8.76147 17.9815 9.23012 17.8988C9.72634 17.7885 10.1536 17.6369 10.512 17.4439C10.898 17.2234 11.2012 16.9615 11.4218 16.6583C11.6699 16.3274 11.7939 15.9553 11.7939 15.5418C11.7939 14.9904 11.6147 14.5355 11.2563 14.1772C10.9255 13.8188 10.512 13.5431 10.0158 13.3501C9.54715 13.1296 9.03714 12.9642 8.48579 12.8539C7.962 12.7161 7.49335 12.6058 7.07984 12.5231C6.28038 12.3301 5.52226 12.1096 4.8055 11.8615C4.08874 11.6134 3.45469 11.2826 2.90333 10.869C2.35198 10.4555 1.9109 9.93174 1.58009 9.29768C1.24927 8.66362 1.08387 7.87795 1.08387 6.94065C1.08387 5.92064 1.29062 5.03847 1.70414 4.29415C2.14522 3.52225 2.71036 2.88819 3.39955 2.39198C4.11631 1.89576 4.91578 1.52359 5.79794 1.27548C6.70768 1.02737 7.61741 0.90332 8.52714 0.90332C9.85039 0.90332 11.1185 1.15143 12.3315 1.64765C13.5445 2.14387 14.5093 2.9709 15.2261 4.12874L12.3315 6.32037Z" fill="#333537"/>
<path d="M37.6525 21.0002H33.9309V17.9815H33.8482C33.3795 19.0291 32.5663 19.8837 31.4084 20.5453C30.2506 21.1794 28.9136 21.4964 27.3973 21.4964C26.4325 21.4964 25.5227 21.3448 24.6681 21.0415C23.8135 20.7658 23.0554 20.3248 22.3938 19.7183C21.7597 19.1118 21.2497 18.3399 20.8638 17.4026C20.4778 16.4377 20.2849 15.3074 20.2849 14.0118V1.39954H24.0065V12.978C24.0065 13.8877 24.1306 14.6734 24.3787 15.335C24.6268 15.9691 24.9576 16.4928 25.3711 16.9064C25.7846 17.2923 26.2533 17.5818 26.7771 17.7747C27.3284 17.9402 27.8936 18.0229 28.4725 18.0229C29.2444 18.0229 29.9611 17.8988 30.6228 17.6507C31.2844 17.4026 31.8633 17.0166 32.3595 16.4928C32.8557 15.9415 33.2417 15.2523 33.5174 14.4253C33.793 13.5982 33.9309 12.6196 33.9309 11.4893V1.39954H37.6525V21.0002Z" fill="#333537"/>
<path d="M43.2624 1.39954H46.9841V4.4182H47.0668C47.5354 3.37063 48.3487 2.52981 49.5065 1.89576C50.6644 1.23413 52.0014 0.90332 53.5176 0.90332C54.4549 0.90332 55.3509 1.05494 56.2055 1.35819C57.0876 1.63386 57.8457 2.07495 58.4798 2.68144C59.1414 3.28793 59.6652 4.07361 60.0512 5.03848C60.4371 5.97578 60.6301 7.09227 60.6301 8.38795V21.0002H56.9084V9.42174C56.9084 8.512 56.7844 7.74011 56.5363 7.10605C56.2882 6.44443 55.9574 5.92064 55.5438 5.53469C55.1303 5.12118 54.6479 4.83172 54.0965 4.66631C53.5727 4.47334 53.0214 4.37685 52.4425 4.37685C51.6706 4.37685 50.9538 4.5009 50.2922 4.74901C49.6306 4.99712 49.0516 5.39685 48.5554 5.94821C48.0592 6.47199 47.6733 7.1474 47.3976 7.97443C47.1219 8.80146 46.9841 9.78012 46.9841 10.9104V21.0002H43.2624V1.39954Z" fill="#333537"/>
<path d="M76.6606 6.32037C76.2195 5.76902 75.6681 5.31415 75.0065 4.95577C74.3725 4.56982 73.5868 4.37685 72.6495 4.37685C71.7673 4.37685 70.9954 4.56982 70.3338 4.95577C69.6997 5.31415 69.3827 5.85172 69.3827 6.56848C69.3827 7.1474 69.5619 7.61605 69.9203 7.97443C70.3062 8.33281 70.7473 8.62227 71.2435 8.84282C71.7673 9.06336 72.3187 9.22876 72.8976 9.33903C73.4765 9.4493 73.9727 9.54579 74.3862 9.62849C75.1857 9.82147 75.93 10.0558 76.6192 10.3315C77.336 10.6071 77.9425 10.9655 78.4387 11.4066C78.9625 11.8477 79.3622 12.3853 79.6379 13.0193C79.9411 13.6534 80.0928 14.4253 80.0928 15.335C80.0928 16.4377 79.8584 17.3888 79.3898 18.1883C78.9211 18.9602 78.3146 19.5942 77.5703 20.0904C76.826 20.5867 75.9714 20.945 75.0065 21.1656C74.0692 21.3861 73.1181 21.4964 72.1533 21.4964C70.5268 21.4964 69.0932 21.2483 67.8527 20.7521C66.6397 20.2558 65.5508 19.3461 64.5859 18.0229L67.3978 15.7072C68.0043 16.3137 68.6797 16.8512 69.4241 17.3199C70.1684 17.7885 71.0781 18.0229 72.1533 18.0229C72.6219 18.0229 73.0906 17.9815 73.5592 17.8988C74.0554 17.7885 74.4827 17.6369 74.8411 17.4439C75.2271 17.2234 75.5303 16.9615 75.7508 16.6583C75.9989 16.3274 76.123 15.9553 76.123 15.5418C76.123 14.9904 75.9438 14.5355 75.5854 14.1772C75.2546 13.8188 74.8411 13.5431 74.3449 13.3501C73.8762 13.1296 73.3662 12.9642 72.8149 12.8539C72.2911 12.7161 71.8224 12.6058 71.4089 12.5231C70.6095 12.3301 69.8514 12.1096 69.1346 11.8615C68.4178 11.6134 67.7838 11.2826 67.2324 10.869C66.6811 10.4555 66.24 9.93174 65.9092 9.29768C65.5784 8.66362 65.413 7.87795 65.413 6.94065C65.413 5.92064 65.6197 5.03847 66.0332 4.29415C66.4743 3.52225 67.0395 2.88819 67.7286 2.39198C68.4454 1.89576 69.2449 1.52359 70.127 1.27548C71.0368 1.02737 71.9465 0.90332 72.8562 0.90332C74.1795 0.90332 75.4476 1.15143 76.6606 1.64765C77.8736 2.14387 78.8384 2.9709 79.5552 4.12874L76.6606 6.32037Z" fill="#333537"/>
<path d="M84.6967 3.79793C85.7442 2.83306 86.9572 2.1163 88.3356 1.64765C89.714 1.15143 91.0924 0.90332 92.4707 0.90332C93.9043 0.90332 95.131 1.08251 96.151 1.44089C97.1986 1.79927 98.0532 2.2817 98.7148 2.88819C99.3765 3.49468 99.8589 4.19766 100.162 4.99712C100.493 5.76902 100.658 6.58226 100.658 7.43686V17.4439C100.658 18.1331 100.672 18.7672 100.7 19.3461C100.727 19.925 100.769 20.4764 100.824 21.0002H97.5156C97.4329 20.0077 97.3916 19.0153 97.3916 18.0229H97.3089C96.4819 19.291 95.5032 20.1869 94.3729 20.7107C93.2426 21.2345 91.9332 21.4964 90.4445 21.4964C89.5348 21.4964 88.6664 21.3723 87.8394 21.1242C87.0123 20.8761 86.2818 20.5039 85.6478 20.0077C85.0413 19.5115 84.5588 18.905 84.2004 18.1883C83.8421 17.4439 83.6629 16.5893 83.6629 15.6245C83.6629 14.3564 83.9386 13.295 84.4899 12.4404C85.0688 11.5858 85.8407 10.8966 86.8056 10.3728C87.798 9.82147 88.9421 9.43552 90.2378 9.21498C91.561 8.96687 92.967 8.84282 94.4556 8.84282H97.1848V8.01579C97.1848 7.51957 97.0883 7.02335 96.8954 6.52713C96.7024 6.03091 96.4129 5.58983 96.027 5.20388C95.641 4.79037 95.1586 4.47334 94.5797 4.25279C94.0008 4.00468 93.3116 3.88063 92.5121 3.88063C91.7953 3.88063 91.1613 3.94955 90.6099 4.08739C90.0861 4.22523 89.6037 4.40442 89.1626 4.62496C88.7215 4.81793 88.3218 5.05226 87.9634 5.32793C87.6051 5.60361 87.2605 5.8655 86.9296 6.11361L84.6967 3.79793ZM95.2 11.572C94.3178 11.572 93.4081 11.6272 92.4707 11.7374C91.561 11.8201 90.7202 11.9993 89.9483 12.275C89.204 12.5507 88.5837 12.9366 88.0875 13.4328C87.6188 13.9291 87.3845 14.5631 87.3845 15.335C87.3845 16.4653 87.7567 17.2785 88.501 17.7747C89.2729 18.271 90.3067 18.5191 91.6024 18.5191C92.6224 18.5191 93.4908 18.3537 94.2075 18.0229C94.9243 17.6645 95.5032 17.2096 95.9443 16.6583C96.3854 16.1069 96.7024 15.5004 96.8954 14.8388C97.0883 14.1496 97.1848 13.4742 97.1848 12.8126V11.572H95.2Z" fill="#333537"/>
<path d="M106.057 1.39954H109.531V4.45955H109.613C109.696 4.18388 109.903 3.83928 110.233 3.42576C110.592 3.01225 111.033 2.6263 111.557 2.26792C112.108 1.88197 112.742 1.56494 113.459 1.31684C114.203 1.04116 115.016 0.90332 115.899 0.90332C117.36 0.90332 118.587 1.20657 119.579 1.81306C120.571 2.41954 121.385 3.32928 122.019 4.54226C122.653 3.32928 123.549 2.41954 124.707 1.81306C125.864 1.20657 127.036 0.90332 128.221 0.90332C129.738 0.90332 130.978 1.15143 131.943 1.64765C132.908 2.14387 133.666 2.80549 134.217 3.63252C134.769 4.43199 135.141 5.3555 135.334 6.40307C135.554 7.42308 135.665 8.48444 135.665 9.58714V21.0002H131.943V10.0834C131.943 9.33903 131.888 8.62227 131.778 7.93308C131.695 7.24389 131.502 6.6374 131.199 6.11361C130.895 5.58983 130.468 5.17631 129.917 4.87307C129.365 4.54226 128.635 4.37685 127.725 4.37685C125.933 4.37685 124.651 4.9282 123.88 6.03091C123.108 7.13362 122.722 8.55335 122.722 10.2901V21.0002H119V10.745C119 9.80768 118.945 8.95309 118.835 8.18119C118.752 7.40929 118.559 6.74767 118.256 6.19632C117.98 5.6174 117.566 5.17631 117.015 4.87307C116.491 4.54226 115.775 4.37685 114.865 4.37685C114.203 4.37685 113.555 4.51469 112.921 4.79037C112.315 5.03847 111.777 5.42442 111.309 5.94821C110.84 6.47199 110.468 7.1474 110.192 7.97443C109.916 8.7739 109.779 9.72498 109.779 10.8277V21.0002H106.057V1.39954Z" fill="#333537"/>
<path d="M141.353 3.79793C142.401 2.83306 143.614 2.1163 144.992 1.64765C146.37 1.15143 147.749 0.90332 149.127 0.90332C150.561 0.90332 151.787 1.08251 152.807 1.44089C153.855 1.79927 154.71 2.2817 155.371 2.88819C156.033 3.49468 156.515 4.19766 156.819 4.99712C157.149 5.76902 157.315 6.58226 157.315 7.43686V17.4439C157.315 18.1331 157.329 18.7672 157.356 19.3461C157.384 19.925 157.425 20.4764 157.48 21.0002H154.172C154.089 20.0077 154.048 19.0153 154.048 18.0229H153.965C153.138 19.291 152.16 20.1869 151.029 20.7107C149.899 21.2345 148.59 21.4964 147.101 21.4964C146.191 21.4964 145.323 21.3723 144.496 21.1242C143.669 20.8761 142.938 20.5039 142.304 20.0077C141.698 19.5115 141.215 18.905 140.857 18.1883C140.499 17.4439 140.319 16.5893 140.319 15.6245C140.319 14.3564 140.595 13.295 141.146 12.4404C141.725 11.5858 142.497 10.8966 143.462 10.3728C144.454 9.82147 145.599 9.43552 146.894 9.21498C148.217 8.96687 149.623 8.84282 151.112 8.84282H153.841V8.01579C153.841 7.51957 153.745 7.02335 153.552 6.52713C153.359 6.03091 153.069 5.58983 152.683 5.20388C152.297 4.79037 151.815 4.47334 151.236 4.25279C150.657 4.00468 149.968 3.88063 149.169 3.88063C148.452 3.88063 147.818 3.94955 147.266 4.08739C146.743 4.22523 146.26 4.40442 145.819 4.62496C145.378 4.81793 144.978 5.05226 144.62 5.32793C144.262 5.60361 143.917 5.8655 143.586 6.11361L141.353 3.79793ZM151.856 11.572C150.974 11.572 150.065 11.6272 149.127 11.7374C148.217 11.8201 147.377 11.9993 146.605 12.275C145.86 12.5507 145.24 12.9366 144.744 13.4328C144.275 13.9291 144.041 14.5631 144.041 15.335C144.041 16.4653 144.413 17.2785 145.157 17.7747C145.929 18.271 146.963 18.5191 148.259 18.5191C149.279 18.5191 150.147 18.3537 150.864 18.0229C151.581 17.6645 152.16 17.2096 152.601 16.6583C153.042 16.1069 153.359 15.5004 153.552 14.8388C153.745 14.1496 153.841 13.4742 153.841 12.8126V11.572H151.856Z" fill="#333537"/>
</svg>
