<svg width="79" height="78" viewBox="0 0 79 78" fill="none" xmlns="http://www.w3.org/2000/svg">
<path d="M62.0826 36.9241C62.0826 54.0677 48.1849 67.9654 31.0413 67.9654C13.8977 67.9654 0 54.0677 0 36.9241C0 19.7805 13.8977 5.88281 31.0413 5.88281C48.1849 5.88281 62.0826 19.7805 62.0826 36.9241Z" fill="url(#paint0_linear_778_72673)"/>
<path d="M35.8628 54.4204C37.1623 47.317 43.782 41.9238 51.4541 41.9238C59.757 41.9238 66.5441 48.2405 67.0188 56.2056H69.7968C74.3554 56.2056 78.051 59.8024 78.051 64.2392C78.051 68.6759 74.3554 72.2727 69.7968 72.2727H35.8628C30.7976 72.2727 26.6914 68.2763 26.6914 63.3465C26.6914 58.4168 30.7976 54.4204 35.8628 54.4204Z" fill="url(#paint1_radial_778_72673)"/>
<defs>
<linearGradient id="paint0_linear_778_72673" x1="6.2743" y1="8.85485" x2="28.2344" y2="42.3728" gradientUnits="userSpaceOnUse">
<stop stop-color="#F59549"/>
<stop offset="1" stop-color="#F06351"/>
</linearGradient>
<radialGradient id="paint1_radial_778_72673" cx="0" cy="0" r="1" gradientUnits="userSpaceOnUse" gradientTransform="translate(46.5349 48.9274) rotate(65.7723) scale(25.6001 43.3232)">
<stop stop-color="white"/>
<stop offset="1" stop-color="#CBDDFF"/>
</radialGradient>
</defs>
</svg>
