<svg width="183" height="32" viewBox="0 0 183 32" fill="none" xmlns="http://www.w3.org/2000/svg">
<path d="M27.1596 15.8586C27.1596 23.2021 21.2065 29.1552 13.863 29.1552C6.5195 29.1552 0.566406 23.2021 0.566406 15.8586C0.566406 8.5151 6.5195 2.56201 13.863 2.56201C21.2065 2.56201 27.1596 8.5151 27.1596 15.8586Z" fill="url(#paint0_linear_795_73449)"/>
<path d="M15.9286 23.3529C16.4852 20.3102 19.3208 18 22.6071 18C26.1637 18 29.071 20.7058 29.2744 24.1176H30.4643C32.417 24.1176 34 25.6583 34 27.5588C34 29.4593 32.417 31 30.4643 31H15.9286C13.7589 31 12 29.2881 12 27.1765C12 25.0648 13.7589 23.3529 15.9286 23.3529Z" fill="url(#paint1_radial_795_73449)"/>
<path d="M47.635 11.0499C47.2236 10.5357 46.7095 10.1115 46.0925 9.77732C45.5012 9.41741 44.7686 9.23746 43.8945 9.23746C43.0719 9.23746 42.352 9.41741 41.7351 9.77732C41.1438 10.1115 40.8481 10.6128 40.8481 11.2812C40.8481 11.8211 41.0152 12.2581 41.3494 12.5923C41.7093 12.9265 42.1207 13.1964 42.5834 13.4021C43.0719 13.6078 43.586 13.762 44.1259 13.8648C44.6657 13.9677 45.1285 14.0577 45.5141 14.1348C46.2596 14.3147 46.9537 14.5332 47.5964 14.7903C48.2648 15.0474 48.8304 15.3816 49.2931 15.7929C49.7816 16.2042 50.1543 16.7055 50.4114 17.2968C50.6942 17.8881 50.8356 18.6079 50.8356 19.4563C50.8356 20.4846 50.6171 21.3715 50.18 22.117C49.743 22.8368 49.1774 23.4281 48.4833 23.8908C47.7892 24.3536 46.9923 24.6878 46.0925 24.8934C45.2184 25.0991 44.3315 25.2019 43.4318 25.2019C41.915 25.2019 40.5782 24.9706 39.4214 24.5078C38.2902 24.0451 37.2748 23.1967 36.375 21.9628L38.9972 19.8033C39.5628 20.3689 40.1926 20.8702 40.8867 21.3072C41.5808 21.7442 42.4292 21.9628 43.4318 21.9628C43.8688 21.9628 44.3058 21.9242 44.7429 21.8471C45.2056 21.7442 45.6041 21.6029 45.9383 21.4229C46.2982 21.2172 46.581 20.973 46.7866 20.6902C47.018 20.3817 47.1337 20.0347 47.1337 19.6491C47.1337 19.1349 46.9666 18.7107 46.6324 18.3765C46.3239 18.0423 45.9383 17.7853 45.4755 17.6053C45.0385 17.3997 44.5629 17.2454 44.0487 17.1426C43.5603 17.014 43.1233 16.9112 42.7377 16.8341C41.9921 16.6541 41.2852 16.4485 40.6168 16.2171C39.9484 15.9857 39.3571 15.6772 38.8429 15.2916C38.3288 14.906 37.9175 14.4176 37.609 13.8263C37.3005 13.235 37.1462 12.5023 37.1462 11.6283C37.1462 10.6771 37.339 9.85445 37.7247 9.16034C38.136 8.44052 38.663 7.84924 39.3057 7.38651C39.9741 6.92377 40.7196 6.57671 41.5422 6.34534C42.3906 6.11398 43.239 5.99829 44.0873 5.99829C45.3213 5.99829 46.5038 6.22966 47.635 6.6924C48.7661 7.15514 49.6659 7.92637 50.3343 9.00609L47.635 11.0499Z" fill="#333537"/>
<path d="M71.2476 24.7392H67.777V21.9242H67.6999C67.2629 22.9011 66.5045 23.698 65.4248 24.315C64.3451 24.9063 63.0982 25.2019 61.6843 25.2019C60.7845 25.2019 59.9362 25.0605 59.1393 24.7778C58.3423 24.5207 57.6354 24.1094 57.0184 23.5438C56.4271 22.9782 55.9515 22.2584 55.5916 21.3843C55.2317 20.4846 55.0517 19.4306 55.0517 18.2223V6.46103H58.5223V17.2583C58.5223 18.1066 58.638 18.8393 58.8693 19.4563C59.1007 20.0475 59.4092 20.536 59.7948 20.9216C60.1804 21.2815 60.6174 21.5514 61.1059 21.7314C61.62 21.8856 62.1471 21.9628 62.6869 21.9628C63.4067 21.9628 64.0751 21.8471 64.6921 21.6157C65.3091 21.3843 65.849 21.0244 66.3117 20.536C66.7744 20.0218 67.1343 19.3791 67.3914 18.6079C67.6485 17.8367 67.777 16.9241 67.777 15.87V6.46103H71.2476V24.7392Z" fill="#333537"/>
<path d="M76.479 6.46103H79.9495V9.27602H80.0266C80.4637 8.29913 81.222 7.51505 82.3018 6.92377C83.3815 6.30678 84.6283 5.99829 86.0422 5.99829C86.9163 5.99829 87.7518 6.13968 88.5487 6.42247C89.3714 6.67954 90.0783 7.09087 90.6696 7.65644C91.2866 8.22201 91.7751 8.95468 92.135 9.85445C92.4949 10.7285 92.6748 11.7697 92.6748 12.9779V24.7392H89.2043V13.942C89.2043 13.0936 89.0886 12.3738 88.8572 11.7825C88.6259 11.1655 88.3174 10.6771 87.9318 10.3172C87.5461 9.93157 87.0963 9.66164 86.5821 9.50739C86.0937 9.32744 85.5795 9.23746 85.0396 9.23746C84.3198 9.23746 83.6514 9.35315 83.0344 9.58451C82.4175 9.81588 81.8776 10.1886 81.4149 10.7028C80.9521 11.1912 80.5922 11.8211 80.3351 12.5923C80.0781 13.3635 79.9495 14.2762 79.9495 15.3302V24.7392H76.479V6.46103Z" fill="#333537"/>
<path d="M107.624 11.0499C107.212 10.5357 106.698 10.1115 106.081 9.77732C105.49 9.41741 104.757 9.23746 103.883 9.23746C103.061 9.23746 102.341 9.41741 101.724 9.77732C101.133 10.1115 100.837 10.6128 100.837 11.2812C100.837 11.8211 101.004 12.2581 101.338 12.5923C101.698 12.9265 102.109 13.1964 102.572 13.4021C103.061 13.6078 103.575 13.762 104.115 13.8648C104.655 13.9677 105.117 14.0577 105.503 14.1348C106.248 14.3147 106.942 14.5332 107.585 14.7903C108.254 15.0474 108.819 15.3816 109.282 15.7929C109.77 16.2042 110.143 16.7055 110.4 17.2968C110.683 17.8881 110.824 18.6079 110.824 19.4563C110.824 20.4846 110.606 21.3715 110.169 22.117C109.732 22.8368 109.166 23.4281 108.472 23.8908C107.778 24.3536 106.981 24.6878 106.081 24.8934C105.207 25.0991 104.32 25.2019 103.421 25.2019C101.904 25.2019 100.567 24.9706 99.4101 24.5078C98.279 24.0451 97.2635 23.1967 96.3638 21.9628L98.986 19.8033C99.5515 20.3689 100.181 20.8702 100.875 21.3072C101.57 21.7442 102.418 21.9628 103.421 21.9628C103.858 21.9628 104.295 21.9242 104.732 21.8471C105.194 21.7442 105.593 21.6029 105.927 21.4229C106.287 21.2172 106.57 20.973 106.775 20.6902C107.007 20.3817 107.122 20.0347 107.122 19.6491C107.122 19.1349 106.955 18.7107 106.621 18.3765C106.313 18.0423 105.927 17.7853 105.464 17.6053C105.027 17.3997 104.552 17.2454 104.038 17.1426C103.549 17.014 103.112 16.9112 102.726 16.8341C101.981 16.6541 101.274 16.4485 100.606 16.2171C99.9371 15.9857 99.3459 15.6772 98.8317 15.2916C98.3176 14.906 97.9062 14.4176 97.5977 13.8263C97.2893 13.235 97.135 12.5023 97.135 11.6283C97.135 10.6771 97.3278 9.85445 97.7134 9.16034C98.1248 8.44052 98.6518 7.84924 99.2944 7.38651C99.9628 6.92377 100.708 6.57671 101.531 6.34534C102.379 6.11398 103.228 5.99829 104.076 5.99829C105.31 5.99829 106.493 6.22966 107.624 6.6924C108.755 7.15514 109.655 7.92637 110.323 9.00609L107.624 11.0499Z" fill="#333537"/>
<path d="M115.118 8.6976C116.095 7.79783 117.226 7.12943 118.511 6.6924C119.796 6.22966 121.082 5.99829 122.367 5.99829C123.704 5.99829 124.848 6.16539 125.799 6.49959C126.776 6.83379 127.573 7.28368 128.19 7.84924C128.807 8.41481 129.257 9.07036 129.54 9.81588C129.848 10.5357 130.002 11.2941 130.002 12.091V21.4229C130.002 22.0656 130.015 22.6569 130.041 23.1967C130.067 23.7366 130.105 24.2507 130.157 24.7392H127.072C126.995 23.8137 126.956 22.8882 126.956 21.9628H126.879C126.108 23.1453 125.195 23.9808 124.141 24.4693C123.087 24.9577 121.866 25.2019 120.478 25.2019C119.629 25.2019 118.82 25.0862 118.048 24.8549C117.277 24.6235 116.596 24.2765 116.005 23.8137C115.439 23.351 114.989 22.7854 114.655 22.117C114.321 21.4229 114.154 20.626 114.154 19.7262C114.154 18.5436 114.411 17.5539 114.925 16.757C115.465 15.96 116.185 15.3173 117.084 14.8289C118.01 14.3147 119.077 13.9548 120.285 13.7492C121.519 13.5178 122.83 13.4021 124.218 13.4021H126.763V12.6309C126.763 12.1681 126.673 11.7054 126.493 11.2427C126.313 10.7799 126.043 10.3686 125.683 10.0087C125.324 9.62308 124.874 9.32744 124.334 9.12178C123.794 8.89041 123.151 8.77472 122.406 8.77472C121.737 8.77472 121.146 8.83899 120.632 8.96753C120.143 9.09607 119.694 9.26317 119.282 9.46883C118.871 9.64878 118.498 9.8673 118.164 10.1244C117.83 10.3815 117.508 10.6257 117.2 10.857L115.118 8.6976ZM124.912 15.9472C124.09 15.9472 123.241 15.9986 122.367 16.1014C121.519 16.1785 120.735 16.3456 120.015 16.6027C119.321 16.8598 118.742 17.2197 118.28 17.6824C117.843 18.1452 117.624 18.7364 117.624 19.4563C117.624 20.5103 117.971 21.2687 118.665 21.7314C119.385 22.1941 120.349 22.4255 121.557 22.4255C122.509 22.4255 123.318 22.2713 123.987 21.9628C124.655 21.6286 125.195 21.2044 125.606 20.6902C126.018 20.1761 126.313 19.6105 126.493 18.9935C126.673 18.3508 126.763 17.721 126.763 17.104V15.9472H124.912Z" fill="#333537"/>
<path d="M135.037 6.46103H138.276V9.31458H138.353C138.43 9.05751 138.623 8.73616 138.931 8.35054C139.266 7.96493 139.677 7.60502 140.165 7.27082C140.68 6.91091 141.271 6.61528 141.939 6.38391C142.633 6.12683 143.392 5.99829 144.214 5.99829C145.577 5.99829 146.721 6.28108 147.646 6.84665C148.572 7.41221 149.33 8.26057 149.922 9.39171C150.513 8.26057 151.348 7.41221 152.428 6.84665C153.508 6.28108 154.6 5.99829 155.706 5.99829C157.12 5.99829 158.277 6.22966 159.176 6.6924C160.076 7.15514 160.783 7.77212 161.297 8.54335C161.811 9.28888 162.158 10.1501 162.338 11.127C162.544 12.0782 162.647 13.0679 162.647 14.0962V24.7392H159.176V14.559C159.176 13.8648 159.125 13.1964 159.022 12.5538C158.945 11.9111 158.765 11.3455 158.482 10.857C158.199 10.3686 157.801 9.98298 157.287 9.7002C156.773 9.39171 156.091 9.23746 155.243 9.23746C153.572 9.23746 152.377 9.75161 151.657 10.7799C150.937 11.8082 150.577 13.1322 150.577 14.7518V24.7392H147.107V15.1759C147.107 14.3019 147.055 13.5049 146.952 12.7851C146.875 12.0653 146.695 11.4483 146.412 10.9342C146.155 10.3943 145.77 9.98298 145.256 9.7002C144.767 9.39171 144.099 9.23746 143.25 9.23746C142.633 9.23746 142.029 9.366 141.438 9.62308C140.872 9.85444 140.371 10.2144 139.934 10.7028C139.497 11.1912 139.15 11.8211 138.893 12.5923C138.636 13.3378 138.507 14.2248 138.507 15.2531V24.7392H135.037V6.46103Z" fill="#333537"/>
<path d="M167.951 8.6976C168.928 7.79783 170.059 7.12943 171.345 6.6924C172.63 6.22966 173.916 5.99829 175.201 5.99829C176.538 5.99829 177.682 6.16539 178.633 6.49959C179.61 6.83379 180.407 7.28368 181.024 7.84924C181.641 8.41481 182.091 9.07036 182.373 9.81588C182.682 10.5357 182.836 11.2941 182.836 12.091V21.4229C182.836 22.0656 182.849 22.6569 182.875 23.1967C182.9 23.7366 182.939 24.2507 182.99 24.7392H179.906C179.828 23.8137 179.79 22.8882 179.79 21.9628H179.713C178.941 23.1453 178.029 23.9808 176.975 24.4693C175.921 24.9577 174.7 25.2019 173.311 25.2019C172.463 25.2019 171.653 25.0862 170.882 24.8549C170.111 24.6235 169.43 24.2765 168.838 23.8137C168.273 23.351 167.823 22.7854 167.489 22.117C167.154 21.4229 166.987 20.626 166.987 19.7262C166.987 18.5436 167.244 17.5539 167.759 16.757C168.298 15.96 169.018 15.3173 169.918 14.8289C170.844 14.3147 171.91 13.9548 173.119 13.7492C174.353 13.5178 175.664 13.4021 177.052 13.4021H179.597V12.6309C179.597 12.1681 179.507 11.7054 179.327 11.2427C179.147 10.7799 178.877 10.3686 178.517 10.0087C178.157 9.62308 177.708 9.32744 177.168 9.12178C176.628 8.89041 175.985 8.77472 175.24 8.77472C174.571 8.77472 173.98 8.83899 173.466 8.96753C172.977 9.09607 172.527 9.26317 172.116 9.46883C171.705 9.64878 171.332 9.8673 170.998 10.1244C170.664 10.3815 170.342 10.6257 170.034 10.857L167.951 8.6976ZM177.746 15.9472C176.923 15.9472 176.075 15.9986 175.201 16.1014C174.353 16.1785 173.569 16.3456 172.849 16.6027C172.155 16.8598 171.576 17.2197 171.113 17.6824C170.676 18.1452 170.458 18.7364 170.458 19.4563C170.458 20.5103 170.805 21.2687 171.499 21.7314C172.219 22.1941 173.183 22.4255 174.391 22.4255C175.342 22.4255 176.152 22.2713 176.821 21.9628C177.489 21.6286 178.029 21.2044 178.44 20.6902C178.852 20.1761 179.147 19.6105 179.327 18.9935C179.507 18.3508 179.597 17.721 179.597 17.104V15.9472H177.746Z" fill="#333537"/>
<defs>
<linearGradient id="paint0_linear_795_73449" x1="3.25402" y1="3.83509" x2="12.6607" y2="18.1926" gradientUnits="userSpaceOnUse">
<stop stop-color="#F59549"/>
<stop offset="1" stop-color="#F06351"/>
</linearGradient>
<radialGradient id="paint1_radial_795_73449" cx="0" cy="0" r="1" gradientUnits="userSpaceOnUse" gradientTransform="translate(20.5 21) rotate(65.7723) scale(10.9659 18.5576)">
<stop stop-color="white"/>
<stop offset="1" stop-color="#CBDDFF"/>
</radialGradient>
</defs>
</svg>
